/* XPM */
static char *_0065342541243769dc797282708965d[] = {
/* columns rows colors chars-per-pixel */
"32 32 224 2 ",
"   c gray6",
".  c #0F1010",
"X  c #141414",
"o  c #181717",
"O  c #171917",
"+  c #1C1A15",
"@  c #171719",
"#  c #191719",
"$  c #171919",
"%  c #1A1A1A",
"&  c #221D16",
"*  c #211E19",
"=  c #252117",
"-  c #252119",
";  c #2A241C",
":  c #2E291D",
">  c #3A2F1C",
",  c #1E1E20",
"<  c #201E20",
"1  c #222222",
"2  c #2B2720",
"3  c #2D2920",
"4  c #2A2A2A",
"5  c #322D22",
"6  c #373126",
"7  c #3C3426",
"8  c #3A3529",
"9  c #42361E",
"0  c #403625",
"q  c #433B27",
"w  c #4C3F24",
"e  c #433B2A",
"r  c #493F2A",
"t  c #4D4126",
"y  c #4B402B",
"u  c #54462C",
"i  c #5A4A2D",
"p  c #4C4532",
"a  c #504632",
"s  c #554A31",
"d  c #5A4D33",
"f  c #5F5232",
"g  c #69562F",
"h  c #745C2F",
"j  c #635333",
"k  c #695732",
"l  c #6D5A34",
"z  c #67583A",
"x  c #6D5D3B",
"c  c #735D33",
"v  c #7D6537",
"b  c #76633A",
"n  c #7C653A",
"m  c #766642",
"M  c #7E6D46",
"N  c #865400",
"B  c #8A5700",
"V  c #8B5800",
"C  c #9B6305",
"Z  c #9D660A",
"A  c #A66C0D",
"S  c #A76E10",
"D  c #A86F11",
"F  c #AC7415",
"G  c #A3771D",
"H  c #B37917",
"J  c #B67C1B",
"K  c #8B6C31",
"L  c #976333",
"P  c #996436",
"I  c #9E6A36",
"U  c #9D6939",
"Y  c #927135",
"T  c #9D7A39",
"R  c #AF7E23",
"E  c #A26E3B",
"W  c #A47235",
"Q  c #AB7937",
"!  c #A77538",
"~  c #A97638",
"^  c #A27C38",
"/  c #AE7C38",
"(  c #866C43",
")  c #8E6F44",
"_  c #897243",
"`  c #877448",
"'  c #8A754A",
"]  c #947444",
"[  c #987544",
"{  c #927845",
"}  c #937A4A",
"|  c #867752",
" . c #A77641",
".. c #A67A44",
"X. c #A97942",
"o. c #AE842C",
"O. c #BE8423",
"+. c #B38428",
"@. c #B7892E",
"#. c #BA8A2E",
"$. c #B08730",
"%. c #B38A34",
"&. c #B88D35",
"*. c #B18139",
"=. c #B48D39",
"-. c #B88E3F",
";. c #B8913C",
":. c #C19337",
">. c #C2933E",
",. c #C6993D",
"<. c #C99B3E",
"1. c #CDA03F",
"2. c #9E844B",
"3. c #938154",
"4. c #9F8553",
"5. c #A88042",
"6. c #A88D49",
"7. c #B08046",
"8. c #B48F43",
"9. c #B1844A",
"0. c #BF9640",
"q. c #BD9845",
"w. c #B1904A",
"e. c #BF9C49",
"r. c #A48D54",
"t. c #B58B50",
"y. c #AD935C",
"u. c #B79055",
"i. c #BD9456",
"p. c #BEA551",
"a. c #BAA65E",
"s. c #A39363",
"d. c #AE9C66",
"f. c #A7986D",
"g. c #B09B64",
"h. c #A69A74",
"j. c #B9A761",
"k. c #CA9E40",
"l. c #C29758",
"z. c #C29C5D",
"x. c #CFA240",
"c. c #C6A34F",
"v. c #D2A245",
"b. c #C9A350",
"n. c #CCAB59",
"m. c #E3AD48",
"M. c #EDB54A",
"N. c #F0B74A",
"B. c #F0BB4D",
"V. c #F3BF5B",
"C. c #C29E60",
"Z. c #C8A463",
"A. c #CEA866",
"S. c #CCA968",
"D. c #D0AB68",
"F. c #C6B762",
"G. c #C7B864",
"H. c #C8B967",
"J. c #D0B261",
"K. c #D1B36E",
"L. c #D6B869",
"P. c #D9BD6B",
"I. c #C1AE72",
"U. c #CBB470",
"Y. c #D5BA75",
"T. c #DABB74",
"R. c #F2C14F",
"E. c #E3C354",
"W. c #E0C857",
"Q. c #E1CE5A",
"!. c #F3C350",
"~. c #F1CB54",
"^. c #FECD55",
"/. c #F2D759",
"(. c #F2DC5C",
"). c #F2E25E",
"_. c #DBC06F",
"`. c #DEC775",
"'. c #DFC37B",
"]. c #E1C77C",
"[. c #E4CB7E",
"{. c #E7D07F",
"}. c #F3EC62",
"|. c #F3F065",
" X c #F5F26D",
".X c #E9E277",
"XX c #F4F177",
"oX c #F5F278",
"OX c #FEFD7A",
"+X c #D6C586",
"@X c #DFCB83",
"#X c #E6CF82",
"$X c #E6D181",
"%X c #EAD384",
"&X c #E2D08D",
"*X c #EADA8D",
"=X c #F3DB86",
"-X c #F0DD8D",
";X c #F4E28D",
":X c #F9E78F",
">X c #F7F589",
",X c #F8F68C",
"<X c #FDFD8A",
"1X c #EBE493",
"2X c #F9E796",
"3X c #F9E896",
"4X c #FBEC9B",
"5X c #F6F394",
"6X c #F7F399",
"7X c #FFF29E",
"8X c #DCD2A1",
"9X c #E0D6A3",
"0X c #FCEFA2",
"qX c #F7F4A0",
"wX c #FEF0A3",
"eX c #FDF5AB",
"rX c #F6EFB9",
"tX c #FBF4B0",
"yX c #F5F1BD",
"uX c #F5F3C2",
"iX c #F7F8C3",
"pX c #F4F7C9",
"aX c #F5F9C9",
"sX c None",
/* pixels */
"sXsXsXsXp.E.B.m.N.N.M.~.~.(.|.~./.(.~.B.).qX5XB.B.,X.Xc.sXsXsXsX",
"sXsXj.OX^ > + + + & & + & ; : & & ; = - & ; a 5 + 5 u T ^.6.sXsX",
"sXT v.c X   X     . X   . X o X . X X X X X @ 4 X o , # w -.a.sX",
"sXM.9 % X X X       X X X X X o X . . X X o . + 1 @ $ $ X t <XsX",
"F.K . @ X   X X . . o X . X X @ X . . . X X X X X $ + o # - V.H.",
"1Xu X @ X X X   . . X o X X 3 5.0.r X . X . X X X @ @ # X 1 x Q.",
" X: X $ + X   X X . X + % 6 ..P *.x.y . . X $ $ % # @ X @ 4 5 !.",
"R.; X O % X X   . X . X 8 C.9.X.E / x.s % 1 % o X $ # X % 4 2 N.",
"B.= # . # % @ X X . X q '.K.Z.l.7.I / <.d X X X $ o X o < 1 ; M.",
"R.& $ X X , % % $ O a 7X;X].y.* % ) L W :.b $ X X o o $ 1 % = B.",
"B.& $ o X @ % X @ d uXuX7X=X@ z ' X 0 0 u s X @ o X @ % 1 X & R.",
"B.= $ o . X X X d 4XtXyXyX4XX j ' X 7 7 6 0 i e X X $ 1 # @ - /.",
"B.= $ o X   X j '.-X4XwXuXuXI.o X 4.C.t. .I Q k.f X < % @ X -  X",
"N.; % o X . l c.J._.%X7XwXuXuX7X=X#XT.A.i. .P ~ k.x 1 @ X X 3 oX",
"B.; % o X c o.;.b.2.` $X3XeXuXpXeX2X$XY.D.} [ U ! ,.j @ X @ 8  X",
"/.: % X h H +.$.n X X 5 U.@X&X8X8X*X#XY.y . @ ( U ! k.l $ 1 8 }.",
"/.: % X Z A O.#.X j b.. X X o X X X X X X K.x 1 9.E ! >.$ 1 8 }.",
"!.; % X h V D J k X * * 2.r.y.g.d.f.h.s.+ 6 X s z.9.L ] o o 6  X",
"B.; % o X h B A O.v f 8.c.n.`.-X0XeXaXaX+Xs m T.S.u.} X # X : XX",
"B.= # o X . c V A H +.$.0.b.n.P.$X3XwXrXaXeX:X%XT.} 1 % X X -  X",
"B.; X o . X X c N D O.#.&.=.w.6 7 Y.3XwXrXuXeX4X3.X $ 1 $ X = (.",
"B.& $ X . o % X l B D O.+.=.% r q + [.3XwXrXaX3.o # X < 1 o - R.",
"B.& % X . 1 1 % $ c B S J %.% 2.{ % L.$X3XeX| X o o X $ 4 % * B.",
"B.; $ X $ 1 X X . . g B A J v @ $ _ n.P.$XM X o + o X @ 1 1 - N.",
"R.; + X , X . X X X X g B Z H 2 0 $.0.n.m < % $ X $ + X % 4 2 M.",
" X: X $ $ X . X X X X O k B C ; r G %.j X $ % % $ $ $ X % 4 5 !.",
"1Xi X O # X X X X . X $ X k N 6 d F d X . X X X % # $ + # 1 x W.",
"G.Y X + X . X . . . X O X X c e i k X . X X $ X o % # $ # , V.F.",
"sXN.9 % X X . X   X X . X X o $ X X . X O @ X $ 1 $ % $ $ t <XsX",
"sXT v.l X . X   . X X X X X o X   . o o X X X 4 o $ 1 $ w 8.a.sX",
"sXsXj.OX^ > + + + + * & = = ; = & ; ; = + ; p 7 + 5 s T ^.6.sXsX",
"sXsXsXsXc.E.R.m.N.B.M.~.~.(.|.~./.).~.N./.6X6X!.B.,X.Xc.sXsXsXsX"
};
