/* XPM */
static char *c0a4e594d98c4df6aba005e16c36b48e[] = {
/* columns rows colors chars-per-pixel */
"64 64 256 2 ",
"   c #0F0F0F",
".  c #110F11",
"X  c #141414",
"o  c #181717",
"O  c #171817",
"+  c #1A1916",
"@  c #171718",
"#  c #181618",
"$  c #171818",
"%  c #1A1A1A",
"&  c #10100F",
"*  c #221E15",
"=  c #211E1A",
"-  c #1F201F",
";  c #242017",
":  c #25221A",
">  c #2A251C",
",  c #2D291E",
"<  c #30291F",
"1  c #1E1E21",
"2  c #201E20",
"3  c #1E2020",
"4  c #232323",
"5  c #2D2922",
"6  c #2B2A2A",
"7  c #282626",
"8  c #332D22",
"9  c #322D2A",
"0  c #373124",
"q  c #3A3325",
"w  c #3D3728",
"e  c #443C2A",
"r  c #493F2B",
"t  c #463A22",
"y  c #734000",
"u  c #4C422D",
"i  c #52472E",
"p  c #4D4431",
"a  c #514631",
"s  c #544931",
"d  c #5B4E34",
"f  c #5E5135",
"g  c #624D27",
"h  c #69552E",
"j  c #755C2D",
"k  c #635435",
"l  c #6D5C3A",
"z  c #6B5A37",
"x  c #725F3A",
"c  c #77633A",
"v  c #796742",
"b  c #865400",
"n  c #895700",
"m  c #8D5A01",
"M  c #945F03",
"N  c #95620A",
"B  c #99650A",
"V  c #9B6A13",
"C  c #9B6D1C",
"Z  c #956510",
"A  c #A66B0B",
"S  c #A57217",
"D  c #AA7416",
"F  c #A77418",
"G  c #AA7619",
"H  c #AE781C",
"J  c #B37B1E",
"K  c #B27816",
"L  c #886C37",
"P  c #9D6A36",
"I  c #996533",
"U  c #8E733E",
"Y  c #997736",
"T  c #AB7E23",
"R  c #A47829",
"E  c #A26F39",
"W  c #A4733C",
"Q  c #AA763E",
"!  c #A37E3B",
"~  c #AC793E",
"^  c #A57934",
"/  c #B87F22",
"(  c #826C43",
")  c #8A7448",
"_  c #957942",
"`  c #9C7C42",
"'  c #957948",
"]  c #927E50",
"[  c #AD7B41",
"{  c #A57A44",
"}  c #B07E42",
"|  c #BB801F",
" . c #AD8229",
".. c #BC8323",
"X. c #B1852C",
"o. c #BA882D",
"O. c #B78428",
"+. c #AA843A",
"@. c #B58C34",
"#. c #B98C33",
"$. c #B3843B",
"%. c #BB8F39",
"&. c #B38C3F",
"*. c #BC933C",
"=. c #B6913D",
"-. c #C89D36",
";. c #CA9E3A",
":. c #C4973A",
">. c #C08A2D",
",. c #9F824A",
"<. c #998456",
"1. c #AB8B45",
"2. c #AD8249",
"3. c #A78745",
"4. c #B38242",
"5. c #B38F45",
"6. c #BA8A43",
"7. c #B3854A",
"8. c #B6894C",
"9. c #B88A4B",
"0. c #AC924C",
"q. c #BB9443",
"w. c #B3954C",
"e. c #BB954A",
"r. c #BA9746",
"t. c #A48A55",
"y. c #AB8B54",
"u. c #BA8D51",
"i. c #B48A51",
"p. c #AB9553",
"a. c #AA905A",
"s. c #BD9255",
"d. c #B59A5C",
"f. c #BD9B5A",
"g. c #B89957",
"h. c #BCA04E",
"j. c #BBA95D",
"k. c #AA9868",
"l. c #B39D66",
"z. c #BBA56A",
"x. c #BAA267",
"c. c #C29444",
"v. c #C49944",
"b. c #C99B46",
"n. c #C49D4A",
"m. c #C99C4A",
"M. c #C09657",
"N. c #C49C5C",
"B. c #C19758",
"V. c #CEA245",
"C. c #C4A04C",
"Z. c #C9A24D",
"A. c #D2A546",
"S. c #CAA551",
"D. c #CDA955",
"F. c #CEAC5B",
"G. c #C5A655",
"H. c #D1AE5C",
"J. c #D7B456",
"K. c #D8B24D",
"L. c #E7AF48",
"P. c #ECB54B",
"I. c #EAB84D",
"U. c #F1BB4D",
"Y. c #F6BB4C",
"T. c #F4BD54",
"R. c #C5A464",
"E. c #CAA462",
"W. c #CEAA65",
"Q. c #C7AA6A",
"!. c #D2AD6A",
"~. c #D0AA66",
"^. c #CAB569",
"/. c #D5B462",
"(. c #D9B966",
"). c #D5B16E",
"_. c #DABD6A",
"`. c #D5B868",
"'. c #C9B272",
"]. c #D4B471",
"[. c #DABD75",
"{. c #D6B873",
"}. c #F0C04F",
"|. c #FFC34F",
" X c #E6C957",
".X c #F1C451",
"XX c #FFC650",
"oX c #F1CB54",
"OX c #FFCC52",
"+X c #EADD5F",
"@X c #FFD455",
"#X c #FFD857",
"$X c #F2D459",
"%X c #F2DC5C",
"&X c #FFDB59",
"*X c #F4D258",
"=X c #F2E35E",
"-X c #FFE45C",
";X c #FFEB5F",
":X c #DBC06D",
">X c #D7C06F",
",X c #DDC273",
"<X c #DBC578",
"1X c #E0C574",
"2X c #E1C579",
"3X c #E4CB7B",
"4X c #E6CC7B",
"5X c #EAD17F",
"6X c #E3DA77",
"7X c #F2EB62",
"8X c #FFEE61",
"9X c #F2E863",
"0X c #F3F066",
"qX c #FFF463",
"wX c #FFFB65",
"eX c #F4F16D",
"rX c #FFFF6C",
"tX c #EAE476",
"yX c #F2EE78",
"uX c #FFFF72",
"iX c #FFFF7B",
"pX c #F4F177",
"aX c #E8CE80",
"sX c #E7D182",
"dX c #EBD384",
"fX c #EDD689",
"gX c #EDD98B",
"hX c #EFD887",
"jX c #F2DB8B",
"kX c #F0D788",
"lX c #F3DF90",
"zX c #F5E18E",
"xX c #FFFF84",
"cX c #F6F38B",
"vX c #FFFF8B",
"bX c #F7F580",
"nX c #F5E393",
"mX c #F8E692",
"MX c #FBEB94",
"NX c #F9E799",
"BX c #FDEC9D",
"VX c #F7EA9D",
"CX c #FFFF94",
"ZX c #FFF19D",
"AX c #FAEDA3",
"SX c #FAEEAC",
"DX c #FDF1A4",
"FX c #FBF2AB",
"GX c #FAEFB2",
"HX c #F8EFBA",
"JX c #FAF2B4",
"KX c #F6F1BD",
"LX c #F8F2B9",
"PX c #F3F2C3",
"IX c #F4F7C8",
"UX c None",
/* pixels */
"UXUXUXUXUXUXUXUXUX1.h.K.}.P.L.P.P.U.U.P.U.U.oXoXoXoX%X=X7X0XoX.X=X%X%X$XoX.X.X.X=XpXcXcXcXpX*XU.U.7XpXbX6X^.p.UXUXUXUXUXUXUXUXUX",
"UXUXUXUXUXUXUXj.+X-X-X&X#XXXY.Y.}.XXXX|.|.|.XX#X#X&X-X8XwXwX-XXX&X;X;X-X-X&X@XOX@XwXiXvXCXxXwXOXY.&XiXvXxXuXqX$Xw.UXUXUXUXUXUXUX",
"UXUXUXUXUXUXtXrXwXL.L t ; * + + + * * + * * + ; ; ; ; > > > : * ; : > > ; > ; ; ; ; > 8 w e 8 > * * 5 e z +.U.-X-X XUXUXUXUXUXUX",
"UXUXUXUX0.CXiX#Xj . X . & & & & &   &   & & & & & X X X o X @ X & X X X X X O X o & X @ - 4 4 $ @ X $ 4 = $ o h I.-X-X0.UXUXUXUX",
"UXUXUX` #XvXT.@ X X & X & & X &       X & . . X & X X X O X @ X & & X X O X X O X X X X $ % 6 3 o X + : 1 $ o o $ 4.-X-Xd.UXUXUX",
"UXUXUXOX|.! $ @ X & X & X & & &     & X X X & . & X X X @ + 0 ` V.q.x X X X X X X X X @ @ X 1 6 o X @ % 4 $ $ # $ + j 8XrXUXUXUX",
"UXUXI.OXY X $ @ X X X X X & X &   X     X X . . X X X X X u 4.^ c.;.-.U & X X X X X o X X X X : 6 $ X + - $ $ + $ $ @ c.uXtXUXUX",
"UX1.XX:.  . % @ X . & X & X X &         X X X X X & X & i ~ P 4.6.v.V.-.U X & X X X X X X X X X % 6 @ @ % $ $ o $ $ % % 8XvX'.UX",
"UX%X&Xg   X + # X X . X & . . &     X   X X X X X X X a 7.P ~ ~ } 6.c.V.-.U . X . X X X X X X X X + % @ % X @ @ $ + $ 1 ` vXyXUX",
"z.iXXXX . . % $ . X X & X . X & X       X X @ X X X d s.[ 7.[ Q [ [ 6.c.V.;.Y X . X X X X X X X @ X @ $ % @ @ + # o % 4 4 rXuXp.",
">XCX&.X @ X @ $ @ X X X X & X .   X       . $ X X k N.s.s.u.7.~ Q ~ [ 6.c.A.-._ X & X . X X X X X X + @ + O @ @ @ + % 7 4 n.uXG.",
"6XvXh X @ X # + @ X X   & X & & X   X X X X @ $ l !.R.E.N.s.u.7.[ Q [ ~ 4.c.V.;.U X X X & X X @ $ % $ @ + @ @ O @ $ 3 4 7 h rXK.",
"0XxX0 X @ X X + $ X X & X X & X & X X   . X # v [.].).~.E.B.M.u.7.[ [ [ [ 4.c.A.-.` X X X X + % - # @ @ O @ @ o $ $ 4 7 4 q ;XI.",
"$XrX, O X @ X o 3 $ X X & X & X   X   X . X ( aXaX[.{.).~.E.B.i.} [ E [ ~ [ $.c.V.;.` # % % % $ @ @ @ + @ + X + O = 4 4 - , #X}.",
"oX#X> $ X X $ $ % $ X & & X X & X X X & X ( zXgXdX3X[.[.).R.E.y.] ,.u.E E [ [ 4.c.V.;.3.% + @ @ @ @ + $ @ X @ @ O - 6 4 % , OXU.",
".XOX; $ o X X $ % % $ X X X & X & X X X <.DXBXlXkXaXaX,X].y.w + # # : ( [ E [ [ $.c.b.;.3.$ @ X @ O @ $ @ O X $ $ 3 4 4 % > |.}.",
"oXOX* X + @ & @ O % % $ @ & X & X X . <.PXSXZXMXzXhXsX3Xx.o @ @ o @ X o ( P I P E Q $.:.:.5.= # X @ o @ O X O X % 7 4 % % : OXU.",
".X@X* X @ o X & @ % % % % O X X & . k.IXIXFXDXZXZXzXhXsX0 @ @ @ u 4 = 4 4 t.{ { { { 7.5.r.A.' + X O X @ X @ o @ - 4 4 % # : OXU.",
".X@X* X O O @ & X $ 3 % % - % $ X k.LXKXPXKXJXDXZXZXnX{.o % = a.~.R.0 $ @ @ X @ $ O @ X @ X 8 $ X o + @ @ X @ $ 4 4 % + o : OXU.",
".X#X* X O O @ X X X % % % % % % x.FXSXSXKXPXKXJXDXZXVXQ.4 % 4 2X'.Q.s X X X @ @ X @ X X O o # # X @ @ X X @ @ % 4 4 $ $ @ : OX.X",
"}.@X; & @ $ @ X X & O 4 $ $ X x.BXDXBXAXSXKXPXKXGXDXDXsX+ X @ v Q.t.+ o o : , , > , > > > = = = : = @ @ @ X @ 1 4 % + X @ > |.oX",
"U.OX; X X + @ X X & & % % $ j.gXnXNXDXAXAXSXHXPXPXGXDXDXf X X o @ @ X X = E.N.B.s.u.7.7.} 7.9.c.n.V.3.o @ X % 4 - $ @ @ @ ; XX*X",
"U.#X; X O $ @ X X X X X : x.2X5XhXlXNXBXAXAXSXHXPXKXJXFXgX8 X X X X X X d.R.R.s.i.i.[ Q E E W Q &.:.;.5.X @ : 3 % $ X + @ : @X=X",
"U.OX; @ @ + X X X & X + f./.:X4X5XhXnXNXBXAXAXSXLXPXKXJXFXNXc > X % d R.].).!.W.N.s.u.8.} W Q [ 4.6.b.;.5.% 3 % $ @ @ + X ; -X7X",
"U.OX; X # + @ X X X * h.G.(._.:X2X5XhXzXNXZXAXAXSXKXPXPXGXFXDXmX2XsXsX3X2X{.).!.E.N.B.s.9.} [ [ [ $.c.b.;.w.1 % + @ + @ X : 8X0X",
"U.XX; X $ # @ @ X : e.q.D.H./._.,X3X5XhXlXNXBXBXAXSXHXPXPXGXFXDXZXmXjXhX5X2X[.).!.E.N.B.u.9.} [ [ ~ } 6.b.;.5.# X @ o X O , rXeX",
"U.OX* X $ $ @ @ 0 =.@.n.Z.D.H./._.:X,X4XfXlXNXZXBXAXSXHXPXPXJXSXZXBXmXjXfX4X2X[.].!.E.N.B.u.7.[ Q Q [ } 6.b.;.q.+ @ X @ $ 8 rXpX",
"}.OX; O + + @ 0 %. .*.q.v.Z.D.D.F._.^._.5XdXzXNXBXAXAXAXGXPXPXJXSXZXMXmXjXkXaX2X[.].).R.N.B.M.7.W W ~ [ } 6.b.-.r.@ @ X $ 8 uX0X",
"}.OX; @ + $ u #.T #.#.*.:.n.r.D.v , X + u d.fXlXNXBXBXAXSXHXPXPXJXSXZXBXmXjXkX4X2X[.).E.v e q a ' [ E [ [ [ 6.b.;.e.% + % 0 uX0X",
".X#X: + + u ..G o.#.#.%.*.=.v.r X X X X & X t.fXlXNXDXBXAXSXLXPXIXLXFXDXBXMXjXfXaX,XQ.4 X X X @ 2 l } E [ [ } 6.b.;.e.4 4 0 uX0X",
"oX-X; $ w | A ..O.#.#.#.#.@.x @ @ X & & X X X >XdXjXNXBXBXAXAXHXKXPXLXSXDXBXmXlXfXaX< @ . X % 7 2 % ( { [ W [ 4.6.v.;.e.7 0 rX=X",
"$X;X> + ^ M J | ....o.#.X.*.+ @ @ k e.y.: X X : w w e e e r e e r r u i i a a i a r X . X ) t.a # % % s.[ ~ ~ ~ } 6.n.;.3.0 rX=X",
"*XqX, + G B H J / ....o.T 5.X X X Z.@.r.x & X X @ X @ @ @ O O O @ X @ X X X X X X & X X d >XR.].$ % @ y.{ 7.[ [ [ } 6.c.A.0 rX=X",
"oX-X> $ ^ n F F H | ....T =.X X O ) =.C.w X X X X X X X X X O X X X X X X X X X X X X X e 3X{.x.= % $ s.i.u.} [ [ [ } } b.q rX=X",
".X#X: o u N m F G J / | ..O.i X X & w ; X X X t.g.d.d.j.x.x.z.z.z.x.l.l.k.k.k.k.k.<.X @ X u x 4 7 % 8 E.s.s.u.} [ [ W I ) q uX7X",
"}.OX; @ + f M m F G H / ..H @.O . X X & X X x S.F.`.>X<X4XhXlXBXDXSXFXLXIXIXIXIXJXDXk X X X X X $ 2 a.R.E.B.s.u.} W I { = 0 uX0X",
"}.OX; O $ + k N m F F J J ..H $.e X . X + x C.C.D./._.:X1X4X5XzXNXBXBXAXGXJXKXPXHXJXBXf X O @ X + <.].!.~.E.N.s.7.E _ @ % 8 uXeX",
"U.OX* @ $ $ # d B m F G J J | K o.+.U _ r.@.q.Z.S.F.H.(.:X1X5X5XhXNXBXBXAXSXGXKXPXHXJXAX'.) v <.[.2X[.{.!.~.E.s.i._ @ X # 8 rXpX",
"U.OX; X @ O @ X s N m F F J | ..| |  . .X.%.:.n.C.Z.D./.(.:X1X4XdXjXNXBXBXAXAXGXKXPXLXJXDXDXMXzXfXaX3X[.].).E.s.' @ @ @ @ 5 rXeX",
"U.OX; X + o o @ X i B m F F J J | ..o.o.@.@.%.*.v.Z.S.F./.(.:X1X4XhXgXnXBXAXVXSXGXKXPXLXFXDXBXMXlXfXdX3X[.{.!.' @ @ + X @ > qXeX",
"U.OX; X O $ @ X X   i N m S F J | | ..o.#.#.%.%.*.n.C.S.F.H./.`.:X3XsXjXnXBXBXAXAXJXKXPXHXSXDXBXMXzXfXsX3X{.] % $ @ o o @ : -X7X",
"U.OX; X @ + @ X X X . i N m F F G  .| ..o.o.#.@.%.*.;.C.C.S.g.( l ) ^.5XjXmXBXBXAXAXGXKXPXKXGXDXZXMXzXgXsX) 4 = % # o # @ : #X=X",
"}.OX; X @ $ O X X   X + d V m F F H J | ..o.o.#.%.%.*.*.C.x X X X X X ) 4XgXnXZXBXAXAXGXKXPXLXGXDXBXBXzXv $ % 4 % % $ $ O : OX*X",
"}.@X; X + + @ X X X @ 4 $ p N b S G H J ....o.#.@.#.%.@.l X X O $ X X X <.5XjXnXBXAXAXAXGXKXPXKXFXFXAXv @ @ O 4 4 % $ $ O : |.oX",
"}.#X* X @ O @ X X X $ % % $ a V n F G G | | ..o.o.@. .6.4 % $ e x 5 X O + 2X5XhXnXNXBXAXAXSXKXPXPXJXv @ @ @ X - 4 4 % $ @ > XX.X",
".XOX* X @ + X X X $ % % % - 3 p V n F G H | | ..o.#.T ) $ 1 w Z.r.F.4 $ X d.3X5XhXnXBXDXBXSXSXPXPXl @ X O o X + 4 4 % $ @ : OXU.",
".X#X* @ + O X & O % % % - $ $ X u B n S G G | | ..o.T U @ @ e %.+.S.9 4 4 a.>X3XdXhXzXBXBXBXJXSXd $ @ @ @ X o o 4 4 4 % O : OXU.",
"oXOX* @ # @ X X % % % $ O X & & & u V n S S H H ....H +.@ @ # x Y f X O % H.`.,X4XsXhXnXNXFXDXd $ @ $ O @ @ o $ $ 6 4 % + ; OX}.",
"oXOX; O $ X X @ + % O X X X . X X X e V n S F H J | | X.r # $ $ @ + O X z F./._.:X4X5XjXnXnXu O $ o $ $ o # o @ + 4 4 4 % > XX}.",
"oXOX> $ @ X @ @ % $ X X X . . X & X X w V n S S G | | K o.e $ o O O O p S.S.H.(.:X:X3XsXfXe @ + o o $ $ # o @ # # 3 7 4 % 5 OXU.",
"*XqX< + X + O $ % + @ & & X X . & X X X w C b S F H J | K o.c O @ $ _ *.q.S.D.H./._._.[.p 1 % % @ @ + % # # $ $ $ % 6 4 = 5 #XU.",
"=XuXw @ X @ @ % % $ X X X & . X X X & X X q C n S F G J | A %.O O : %.X.v.n.C.F.H.H.^.8 @ $ % % = # # % + % $ # + $ 4 6 4 0 -XI.",
"6XvXh @ @ @ @ % $ $ X X & & X . & X X & X X q C b S F H J D ^ + @ : %.X.*.v.n.C.C.F.> X X X X @ % 2 % O $ $ $ + $ % 4 6 4 k qXK.",
">XvXq.@ X X O % $ X   & X X X & X X & X X @ + w C b S F H A ^ o @ : %.X.#.*.:.=.w., X X X X X X @ @ % + $ $ $ $ + $ % 7 7 n.rXG.",
"z.xXOXX X . $ % X X   X X & X X & & & X . X X @ 8 C b V F A Y o @ : *.X.#.#. .5.$ X . X X o X o @ X X % % $ $ $ % % % 4 4 rXuXp.",
"UX0X8Xg . . % O X & X X & X X & X & X & X X X X X 0 C b S B Y X X : #.O.@.T 3.+ X X X X X @ o X X @ % + % % + % $ # % = ,.xXyXUX",
"UX1.OXv.  @ % @ X X X & X X & X X   & & X X X X X X 0 C b m Y X X : >.H G +.X X @ X + X @ O X X % 6 % @ 1 # + $ % $ + = qXCX^.UX",
"UXUXI.OXY O % O X X & X X   X   .   X X X X X X X X X 5 C y Y X X : ..A ! X X X X X X @ @ X @ = 9 % X % 4 % % $ $ % $ c.iXtXUXUX",
"UXUXUXOX|.Y % + X X X X   X .   & X X & X X X X X X X X 8 Z R X X > K ^ X @ X X X o @ @ X @ % 6 1 @ X % 1 % % $ % % c ;XrXUXUXUX",
"UXUXUX+.OXxXT.@ X X . & X X & . & X & X . X X . X X X @ @ r L X & q L X @ X X @ @ X X X X = 6 4 @ @ $ 4 4 % @ $ % +.-X-Xd.UXUXUX",
"UXUXUXUXp.CXiX#Xj & & X   & X & & & & & X & & X X X X @ X + O X & X X X X X O X X X @ o 1 7 6 % @ X $ 4 4 $ $ j I.-X-X0.UXUXUXUX",
"UXUXUXUXUXUXtXrXwXL.L t : + * + + * * * * * * ; ; ; ; > > > > ; ; ; > > : > > ; : * : 8 w e q , : * 8 e z +.P.-X-X XUXUXUXUXUXUX",
"UXUXUXUXUXUXUXj.+X-X-X&X@XOXY.Y.Y.|.XX|.XX|.XX@X#X#X-X8XwXwX-X|.&X;X-X-X-X&X#XOX@X8XiXvXCXvXrX@X|.#XiXvXxXuXqX Xp.UXUXUXUXUXUXUX",
"UXUXUXUXUXUXUXUXUX0.h.K.}.P.L.P.P.U.I.U.U.U..X*XoXoX%X=X7X0X*X}.%X%X%X%XoXoX}..X%XeXcXcXcXpX*XI.U.=XbXyXtX^.p.UXUXUXUXUXUXUXUXUX"
};
