/* XPM */
static char *_72324cf589b4cd599f8b7a66b6776ed[] = {
/* columns rows colors chars-per-pixel */
"16 16 82 1 ",
"  c #945A00",
". c #955B00",
"X c #965A00",
"o c #925E06",
"O c #9E6405",
"+ c #9E6406",
"@ c #A46F16",
"# c #A37215",
"$ c #A8741A",
"% c #A9741A",
"& c #AC771F",
"* c #AF791F",
"= c #96622A",
"- c #98652B",
"; c #9D6A2E",
": c #9E6C30",
"> c #97693C",
", c #986A3D",
"< c #AB783D",
"1 c #B07F47",
"2 c #B58427",
"3 c #B68C34",
"4 c #C0892C",
"5 c #CC963B",
"6 c #B78543",
"7 c #BD9C49",
"8 c #BE9E4B",
"9 c #C09843",
"0 c #C39B45",
"q c #C1904A",
"w c #C19256",
"e c #C49E5E",
"r c #CC9959",
"t c #CF9D5B",
"y c #CBA14B",
"u c #CEA048",
"i c #D2A34A",
"p c #D3A448",
"a c #D7A548",
"s c #D4A54A",
"d c #C1A250",
"f c #D6A850",
"g c #D7A850",
"h c #DBAD51",
"j c #DBAC52",
"k c #DDB35D",
"l c #CFA865",
"z c #D9B069",
"x c #DFB96F",
"c c #E4BA6F",
"v c #DAC076",
"b c #DDC277",
"n c #DCC675",
"m c #DAC37A",
"M c #E6C674",
"N c #E8C874",
"B c #ECCC77",
"V c #F1CF7A",
"C c #FFE38A",
"Z c #FBE08D",
"A c #FDE58E",
"S c #F6E191",
"D c #F1E597",
"F c #F1E697",
"G c #FBE692",
"H c #FCE693",
"J c #FFE59A",
"K c #F8ED9D",
"L c #FDE5A3",
"P c #F6ECA0",
"I c #FBE9A5",
"U c #FBEDAC",
"Y c #F7F7BE",
"T c #FBF3BA",
"R c #FBF5BD",
"E c #FAF7BC",
"W c #FBF7BD",
"Q c #F7FCC6",
"! c #F7FDC7",
"~ c #FAFCC5",
"^ c #FAFEC7",
"/ c None",
/* pixels */
"////////////////",
"///////qu///////",
"//////z,=s//////",
"/////Zvct:i/////",
"////IQA/////////",
"///NDEE//xw<j///",
"//y8BGY^Kme6;j//",
"/4#k///LJ///r-g/",
"/*X//////////,6/",
"//&+s0dnP^TZbl//",
"///%X29//HE!S///",
"////%Xs//VFU////",
"/////@+//8N/////",
"//////o5f3//////",
"////////////////",
"////////////////"
};
